<svg xmlns="http://www.w3.org/2000/svg" xmlns:xlink="http://www.w3.org/1999/xlink" width="500" zoomAndPan="magnify" viewBox="0 0 375 374.999991" height="500" preserveAspectRatio="xMidYMid meet" version="1.0"><defs><g/><clipPath id="ca5bd6b432"><path d="M 162 71.796875 L 262 71.796875 L 262 172 L 162 172 Z M 162 71.796875 " clip-rule="nonzero"/></clipPath><clipPath id="a105367aaa"><path d="M 113 123 L 211 123 L 211 228.546875 L 113 228.546875 Z M 113 123 " clip-rule="nonzero"/></clipPath></defs><rect x="-37.5" width="450" fill="#ffffff" y="-37.499999" height="449.999989" fill-opacity="1"/><rect x="-37.5" width="450" fill="#ffffff" y="-37.499999" height="449.999989" fill-opacity="1"/><g clip-path="url(#ca5bd6b432)"><path fill="#ffc61a" d="M 162.152344 84.554688 C 210.148438 84.554688 249.035156 123.4375 249.035156 171.433594 L 261.792969 171.433594 C 261.792969 116.453125 217.136719 71.796875 162.152344 71.796875 Z M 162.152344 84.554688 " fill-opacity="1" fill-rule="evenodd"/></g><path fill="#946c0a" d="M 236.125 171.433594 C 236.125 130.578125 203.011719 97.464844 162.152344 97.464844 L 162.152344 110.222656 C 195.871094 110.222656 223.363281 137.5625 223.363281 171.433594 Z M 236.125 171.433594 " fill-opacity="1" fill-rule="evenodd"/><path fill="#ffc61a" d="M 210.453125 171.433594 C 210.453125 144.703125 188.734375 122.984375 162 122.984375 L 162 135.742188 C 181.59375 135.742188 197.542969 151.691406 197.542969 171.285156 L 210.300781 171.285156 Z M 210.453125 171.433594 " fill-opacity="1" fill-rule="evenodd"/><g clip-path="url(#a105367aaa)"><path fill="#946c0a" d="M 126.460938 171.433594 C 126.460938 153.664062 139.523438 138.929688 156.683594 136.347656 L 156.683594 123.4375 C 132.535156 126.171875 113.699219 146.675781 113.699219 171.585938 C 113.699219 182.828125 117.496094 193.15625 124.027344 201.359375 C 123.878906 201.054688 123.574219 200.75 123.421875 200.597656 L 117.800781 228.699219 L 144.6875 216.699219 L 144.535156 216.699219 C 150.003906 218.824219 155.925781 220.039062 162.304688 220.039062 C 186.910156 220.039062 207.417969 201.507812 210.300781 177.664062 L 197.390625 177.664062 C 194.503906 194.371094 179.925781 207.28125 162.304688 207.28125 C 142.710938 207.28125 126.761719 191.332031 126.761719 171.738281 Z M 124.027344 201.359375 C 124.332031 201.660156 124.484375 201.964844 124.789062 202.269531 C 124.484375 201.964844 124.332031 201.660156 124.027344 201.359375 Z M 124.789062 202.269531 C 125.09375 202.574219 125.242188 202.875 125.546875 203.179688 C 125.242188 202.875 125.09375 202.574219 124.789062 202.269531 Z M 125.546875 203.179688 C 125.851562 203.484375 126.003906 203.789062 126.308594 204.089844 C 126.003906 203.789062 125.851562 203.484375 125.546875 203.179688 Z M 126.308594 204.089844 C 126.609375 204.394531 126.761719 204.699219 127.066406 204.851562 C 126.761719 204.546875 126.609375 204.242188 126.308594 204.089844 Z M 127.066406 205.003906 C 127.371094 205.304688 127.523438 205.457031 127.828125 205.761719 C 127.523438 205.457031 127.371094 205.304688 127.066406 205.003906 Z M 127.828125 205.914062 C 128.128906 206.21875 128.28125 206.371094 128.585938 206.671875 C 128.28125 206.371094 128.128906 206.21875 127.828125 205.914062 Z M 129.496094 207.433594 C 129.800781 207.738281 130.105469 207.890625 130.410156 208.191406 C 130.105469 207.890625 129.800781 207.738281 129.496094 207.433594 Z M 130.410156 208.191406 C 130.710938 208.496094 131.015625 208.648438 131.320312 208.953125 C 131.015625 208.648438 130.710938 208.496094 130.410156 208.191406 Z M 131.320312 208.953125 C 131.625 209.253906 131.925781 209.40625 132.230469 209.710938 C 131.925781 209.40625 131.625 209.253906 131.320312 208.953125 Z M 132.230469 209.710938 C 132.839844 210.167969 133.445312 210.621094 134.054688 211.078125 C 133.445312 210.621094 132.839844 210.167969 132.230469 209.710938 Z M 134.054688 211.078125 C 134.359375 211.230469 134.660156 211.535156 134.964844 211.6875 C 134.660156 211.535156 134.359375 211.230469 134.054688 211.078125 Z M 134.964844 211.6875 C 135.269531 211.835938 135.574219 212.140625 135.875 212.292969 C 135.574219 212.140625 135.269531 211.835938 134.964844 211.6875 Z M 135.875 212.292969 C 136.179688 212.445312 136.484375 212.75 136.789062 212.902344 C 136.484375 212.75 136.179688 212.445312 135.875 212.292969 Z M 137.851562 213.507812 C 138.15625 213.660156 138.457031 213.8125 138.914062 214.117188 C 138.609375 213.964844 138.304688 213.8125 137.851562 213.507812 Z M 138.914062 214.117188 C 139.21875 214.269531 139.523438 214.421875 139.976562 214.570312 C 139.671875 214.421875 139.371094 214.269531 138.914062 214.117188 Z M 139.976562 214.722656 C 140.28125 214.875 140.585938 215.027344 141.039062 215.179688 C 140.738281 215.027344 140.433594 214.875 139.976562 214.722656 Z M 141.039062 215.332031 C 141.34375 215.484375 141.648438 215.636719 142.105469 215.785156 C 141.800781 215.636719 141.496094 215.484375 141.039062 215.332031 Z M 142.105469 215.785156 C 142.40625 215.9375 142.863281 216.089844 143.167969 216.242188 C 142.863281 216.089844 142.40625 215.9375 142.105469 215.785156 Z M 143.167969 216.242188 C 143.472656 216.394531 143.925781 216.546875 144.230469 216.699219 C 143.925781 216.546875 143.472656 216.394531 143.167969 216.242188 Z M 137.851562 213.660156 C 137.546875 213.507812 137.242188 213.203125 136.789062 213.054688 Z M 129.34375 207.433594 C 129.042969 207.128906 128.738281 206.976562 128.585938 206.671875 Z M 129.34375 207.433594 " fill-opacity="1" fill-rule="evenodd"/></g><path fill="#946c0a" d="M 144.535156 163.6875 C 148.027344 163.6875 150.914062 166.574219 150.914062 170.066406 C 150.914062 173.5625 148.027344 176.449219 144.535156 176.449219 C 141.039062 176.449219 138.15625 173.5625 138.15625 170.066406 C 138.15625 166.574219 141.039062 163.6875 144.535156 163.6875 Z M 179.164062 163.6875 C 182.660156 163.6875 185.542969 166.574219 185.542969 170.066406 C 185.542969 173.5625 182.660156 176.449219 179.164062 176.449219 C 175.671875 176.449219 172.785156 173.5625 172.785156 170.066406 C 172.785156 166.574219 175.671875 163.6875 179.164062 163.6875 Z M 161.847656 163.6875 C 165.34375 163.6875 168.230469 166.574219 168.230469 170.066406 C 168.230469 173.5625 165.34375 176.449219 161.847656 176.449219 C 158.355469 176.449219 155.46875 173.5625 155.46875 170.066406 C 155.46875 166.574219 158.355469 163.6875 161.847656 163.6875 Z M 161.847656 163.6875 " fill-opacity="1" fill-rule="evenodd"/><g fill="#000000" fill-opacity="1"><g transform="translate(88.687762, 276.525627)"><g><path d="M 10.546875 0 C 10.015625 0 9.703125 -0.242188 9.609375 -0.734375 L 0.9375 -33.5625 C 0.90625 -33.625 0.890625 -33.707031 0.890625 -33.8125 C 0.890625 -34.269531 1.148438 -34.5 1.671875 -34.5 L 7.296875 -34.5 C 7.785156 -34.5 8.082031 -34.25 8.1875 -33.75 L 12.8125 -14.09375 C 12.84375 -13.957031 12.90625 -13.890625 13 -13.890625 C 13.101562 -13.890625 13.171875 -13.957031 13.203125 -14.09375 L 17.640625 -33.75 C 17.742188 -34.25 18.039062 -34.5 18.53125 -34.5 L 24.09375 -34.5 C 24.625 -34.5 24.9375 -34.25 25.03125 -33.75 L 29.859375 -14.09375 C 29.890625 -13.957031 29.945312 -13.890625 30.03125 -13.890625 C 30.113281 -13.890625 30.171875 -13.957031 30.203125 -14.09375 L 34.640625 -33.75 C 34.742188 -34.25 35.039062 -34.5 35.53125 -34.5 L 40.90625 -34.5 C 41.195312 -34.5 41.398438 -34.40625 41.515625 -34.21875 C 41.628906 -34.039062 41.65625 -33.820312 41.59375 -33.5625 L 33.65625 -0.734375 C 33.5625 -0.242188 33.25 0 32.71875 0 L 27.296875 0 C 26.773438 0 26.460938 -0.242188 26.359375 -0.734375 L 21.4375 -21.6875 C 21.40625 -21.8125 21.335938 -21.875 21.234375 -21.875 C 21.140625 -21.875 21.078125 -21.8125 21.046875 -21.6875 L 16.453125 -0.734375 C 16.359375 -0.242188 16.066406 0 15.578125 0 Z M 10.546875 0 "/></g></g></g><g fill="#000000" fill-opacity="1"><g transform="translate(131.214131, 276.525627)"><g><path d="M 15.765625 -25.71875 C 18.398438 -25.71875 20.519531 -24.910156 22.125 -23.296875 C 23.738281 -21.691406 24.546875 -19.507812 24.546875 -16.75 L 24.546875 -0.84375 C 24.546875 -0.28125 24.265625 0 23.703125 0 L 18.4375 0 C 17.875 0 17.59375 -0.28125 17.59375 -0.84375 L 17.59375 -15.328125 C 17.59375 -16.640625 17.226562 -17.707031 16.5 -18.53125 C 15.78125 -19.351562 14.816406 -19.765625 13.609375 -19.765625 C 12.390625 -19.765625 11.398438 -19.351562 10.640625 -18.53125 C 9.890625 -17.707031 9.515625 -16.640625 9.515625 -15.328125 L 9.515625 -0.84375 C 9.515625 -0.28125 9.234375 0 8.671875 0 L 3.40625 0 C 2.84375 0 2.5625 -0.28125 2.5625 -0.84375 L 2.5625 -33.65625 C 2.5625 -34.21875 2.84375 -34.5 3.40625 -34.5 L 8.671875 -34.5 C 9.234375 -34.5 9.515625 -34.21875 9.515625 -33.65625 L 9.515625 -23.109375 C 9.515625 -22.984375 9.546875 -22.898438 9.609375 -22.859375 C 9.671875 -22.828125 9.738281 -22.863281 9.8125 -22.96875 C 11.15625 -24.800781 13.140625 -25.71875 15.765625 -25.71875 Z M 15.765625 -25.71875 "/></g></g></g><g fill="#000000" fill-opacity="1"><g transform="translate(158.168845, 276.525627)"><g><path d="M 12.71875 -25.71875 C 14.851562 -25.71875 16.753906 -25.347656 18.421875 -24.609375 C 20.097656 -23.867188 21.40625 -22.859375 22.34375 -21.578125 C 23.28125 -20.296875 23.75 -18.867188 23.75 -17.296875 L 23.75 -0.84375 C 23.75 -0.28125 23.472656 0 22.921875 0 L 17.640625 0 C 17.085938 0 16.8125 -0.28125 16.8125 -0.84375 L 16.8125 -2.015625 C 16.8125 -2.148438 16.773438 -2.222656 16.703125 -2.234375 C 16.640625 -2.253906 16.554688 -2.21875 16.453125 -2.125 C 14.941406 -0.445312 12.691406 0.390625 9.703125 0.390625 C 7.171875 0.390625 5.132812 -0.226562 3.59375 -1.46875 C 2.050781 -2.71875 1.28125 -4.5625 1.28125 -7 C 1.28125 -9.53125 2.164062 -11.492188 3.9375 -12.890625 C 5.71875 -14.285156 8.25 -14.984375 11.53125 -14.984375 L 16.515625 -14.984375 C 16.710938 -14.984375 16.8125 -15.082031 16.8125 -15.28125 L 16.8125 -16.3125 C 16.8125 -17.394531 16.472656 -18.238281 15.796875 -18.84375 C 15.117188 -19.457031 14.140625 -19.765625 12.859375 -19.765625 C 11.878906 -19.765625 11.066406 -19.597656 10.421875 -19.265625 C 9.785156 -18.941406 9.347656 -18.484375 9.109375 -17.890625 C 8.921875 -17.429688 8.59375 -17.21875 8.125 -17.25 L 2.65625 -17.9375 C 2.394531 -17.96875 2.191406 -18.039062 2.046875 -18.15625 C 1.898438 -18.269531 1.84375 -18.425781 1.875 -18.625 C 2.039062 -19.976562 2.609375 -21.195312 3.578125 -22.28125 C 4.546875 -23.363281 5.828125 -24.207031 7.421875 -24.8125 C 9.015625 -25.414062 10.78125 -25.71875 12.71875 -25.71875 Z M 11.734375 -4.78125 C 13.140625 -4.78125 14.335938 -5.15625 15.328125 -5.90625 C 16.316406 -6.664062 16.8125 -7.640625 16.8125 -8.828125 L 16.8125 -10.546875 C 16.8125 -10.742188 16.710938 -10.84375 16.515625 -10.84375 L 13.015625 -10.84375 C 11.535156 -10.84375 10.367188 -10.5625 9.515625 -10 C 8.660156 -9.445312 8.234375 -8.660156 8.234375 -7.640625 C 8.234375 -6.753906 8.550781 -6.054688 9.1875 -5.546875 C 9.832031 -5.035156 10.679688 -4.78125 11.734375 -4.78125 Z M 11.734375 -4.78125 "/></g></g></g><g fill="#000000" fill-opacity="1"><g transform="translate(184.187295, 276.525627)"><g><path d="M 17.09375 -20.59375 C 17.09375 -20.039062 16.816406 -19.765625 16.265625 -19.765625 L 11.828125 -19.765625 C 11.628906 -19.765625 11.53125 -19.664062 11.53125 -19.46875 L 11.53125 -9.265625 C 11.53125 -8.179688 11.75 -7.382812 12.1875 -6.875 C 12.632812 -6.363281 13.351562 -6.109375 14.34375 -6.109375 L 15.71875 -6.109375 C 16.28125 -6.109375 16.5625 -5.828125 16.5625 -5.265625 L 16.5625 -1.03125 C 16.5625 -0.507812 16.28125 -0.210938 15.71875 -0.140625 C 14.46875 -0.078125 13.566406 -0.046875 13.015625 -0.046875 C 10.285156 -0.046875 8.242188 -0.503906 6.890625 -1.421875 C 5.546875 -2.347656 4.859375 -4.054688 4.828125 -6.546875 L 4.828125 -19.46875 C 4.828125 -19.664062 4.726562 -19.765625 4.53125 -19.765625 L 2.015625 -19.765625 C 1.460938 -19.765625 1.1875 -20.039062 1.1875 -20.59375 L 1.1875 -24.5 C 1.1875 -25.050781 1.460938 -25.328125 2.015625 -25.328125 L 4.53125 -25.328125 C 4.726562 -25.328125 4.828125 -25.425781 4.828125 -25.625 L 4.828125 -31.1875 C 4.828125 -31.75 5.109375 -32.03125 5.671875 -32.03125 L 10.6875 -32.03125 C 11.25 -32.03125 11.53125 -31.75 11.53125 -31.1875 L 11.53125 -25.625 C 11.53125 -25.425781 11.628906 -25.328125 11.828125 -25.328125 L 16.265625 -25.328125 C 16.816406 -25.328125 17.09375 -25.050781 17.09375 -24.5 Z M 17.09375 -20.59375 "/></g></g></g><g fill="#000000" fill-opacity="1"><g transform="translate(202.912689, 276.525627)"><g><path d="M 12.671875 0.34375 C 10.460938 0.34375 8.535156 0.03125 6.890625 -0.59375 C 5.253906 -1.21875 3.992188 -2.085938 3.109375 -3.203125 C 2.222656 -4.316406 1.78125 -5.582031 1.78125 -7 L 1.78125 -7.25 C 1.78125 -7.800781 2.054688 -8.078125 2.609375 -8.078125 L 7.59375 -8.078125 C 8.144531 -8.078125 8.421875 -7.976562 8.421875 -7.78125 L 8.421875 -7.4375 C 8.421875 -6.71875 8.816406 -6.101562 9.609375 -5.59375 C 10.398438 -5.082031 11.398438 -4.828125 12.609375 -4.828125 C 13.734375 -4.828125 14.640625 -5.039062 15.328125 -5.46875 C 16.015625 -5.894531 16.359375 -6.453125 16.359375 -7.140625 C 16.359375 -7.734375 16.0625 -8.175781 15.46875 -8.46875 C 14.882812 -8.769531 13.914062 -9.082031 12.5625 -9.40625 C 10.957031 -9.832031 9.757812 -10.210938 8.96875 -10.546875 C 6.832031 -11.265625 5.140625 -12.148438 3.890625 -13.203125 C 2.640625 -14.253906 2.015625 -15.765625 2.015625 -17.734375 C 2.015625 -20.171875 2.96875 -22.101562 4.875 -23.53125 C 6.78125 -24.957031 9.28125 -25.671875 12.375 -25.671875 C 14.476562 -25.671875 16.320312 -25.332031 17.90625 -24.65625 C 19.5 -23.988281 20.734375 -23.046875 21.609375 -21.828125 C 22.484375 -20.617188 22.921875 -19.238281 22.921875 -17.6875 C 22.921875 -17.53125 22.84375 -17.390625 22.6875 -17.265625 C 22.539062 -17.148438 22.335938 -17.09375 22.078125 -17.09375 L 17.25 -17.09375 C 16.6875 -17.09375 16.40625 -17.191406 16.40625 -17.390625 L 16.40625 -17.6875 C 16.40625 -18.414062 16.046875 -19.023438 15.328125 -19.515625 C 14.609375 -20.003906 13.640625 -20.25 12.421875 -20.25 C 11.335938 -20.25 10.441406 -20.050781 9.734375 -19.65625 C 9.023438 -19.269531 8.671875 -18.726562 8.671875 -18.03125 C 8.671875 -17.375 9.003906 -16.878906 9.671875 -16.546875 C 10.347656 -16.222656 11.460938 -15.882812 13.015625 -15.53125 C 13.960938 -15.332031 14.878906 -15.082031 15.765625 -14.78125 C 18.128906 -14.09375 19.984375 -13.207031 21.328125 -12.125 C 22.679688 -11.039062 23.359375 -9.460938 23.359375 -7.390625 C 23.359375 -4.960938 22.390625 -3.066406 20.453125 -1.703125 C 18.515625 -0.335938 15.921875 0.34375 12.671875 0.34375 Z M 12.671875 0.34375 "/></g></g></g><g fill="#946c0a" fill-opacity="1"><g transform="translate(227.707288, 276.525627)"><g><path d="M 17.25 -34.546875 C 19.414062 -34.546875 21.316406 -34.101562 22.953125 -33.21875 C 24.597656 -32.332031 25.875 -31.070312 26.78125 -29.4375 C 27.6875 -27.8125 28.140625 -25.953125 28.140625 -23.859375 C 28.140625 -21.785156 27.671875 -19.957031 26.734375 -18.375 C 25.796875 -16.800781 24.476562 -15.578125 22.78125 -14.703125 C 21.09375 -13.835938 19.148438 -13.40625 16.953125 -13.40625 L 10 -13.40625 C 9.800781 -13.40625 9.703125 -13.304688 9.703125 -13.109375 L 9.703125 -0.84375 C 9.703125 -0.28125 9.425781 0 8.875 0 L 3.59375 0 C 3.039062 0 2.765625 -0.28125 2.765625 -0.84375 L 2.765625 -33.703125 C 2.765625 -34.265625 3.039062 -34.546875 3.59375 -34.546875 Z M 16.21875 -18.96875 C 17.726562 -18.96875 18.941406 -19.398438 19.859375 -20.265625 C 20.773438 -21.140625 21.234375 -22.285156 21.234375 -23.703125 C 21.234375 -25.148438 20.773438 -26.316406 19.859375 -27.203125 C 18.941406 -28.085938 17.726562 -28.53125 16.21875 -28.53125 L 10 -28.53125 C 9.800781 -28.53125 9.703125 -28.429688 9.703125 -28.234375 L 9.703125 -19.265625 C 9.703125 -19.066406 9.800781 -18.96875 10 -18.96875 Z M 16.21875 -18.96875 "/></g></g></g><g fill="#946c0a" fill-opacity="1"><g transform="translate(257.125869, 276.525627)"><g><path d="M 14.6875 0.390625 C 12.125 0.390625 9.875 -0.0351562 7.9375 -0.890625 C 6 -1.742188 4.503906 -2.941406 3.453125 -4.484375 C 2.398438 -6.023438 1.875 -7.832031 1.875 -9.90625 L 1.875 -10.75 C 1.875 -11.300781 2.148438 -11.578125 2.703125 -11.578125 L 7.890625 -11.578125 C 8.441406 -11.578125 8.71875 -11.363281 8.71875 -10.9375 L 8.71875 -10.25 C 8.71875 -8.9375 9.316406 -7.828125 10.515625 -6.921875 C 11.722656 -6.015625 13.296875 -5.5625 15.234375 -5.5625 C 16.972656 -5.5625 18.257812 -5.929688 19.09375 -6.671875 C 19.9375 -7.410156 20.359375 -8.320312 20.359375 -9.40625 C 20.359375 -10.195312 20.09375 -10.863281 19.5625 -11.40625 C 19.039062 -11.945312 18.332031 -12.421875 17.4375 -12.828125 C 16.550781 -13.242188 15.125 -13.8125 13.15625 -14.53125 C 10.925781 -15.289062 9.050781 -16.0625 7.53125 -16.84375 C 6.019531 -17.632812 4.738281 -18.710938 3.6875 -20.078125 C 2.644531 -21.441406 2.125 -23.128906 2.125 -25.140625 C 2.125 -27.109375 2.628906 -28.832031 3.640625 -30.3125 C 4.660156 -31.789062 6.082031 -32.921875 7.90625 -33.703125 C 9.726562 -34.492188 11.804688 -34.890625 14.140625 -34.890625 C 16.640625 -34.890625 18.875 -34.445312 20.84375 -33.5625 C 22.8125 -32.675781 24.347656 -31.4375 25.453125 -29.84375 C 26.554688 -28.25 27.109375 -26.398438 27.109375 -24.296875 L 27.109375 -23.796875 C 27.109375 -23.242188 26.828125 -22.96875 26.265625 -22.96875 L 21.09375 -22.96875 C 20.53125 -22.96875 20.25 -23.128906 20.25 -23.453125 L 20.25 -23.953125 C 20.25 -25.328125 19.679688 -26.5 18.546875 -27.46875 C 17.421875 -28.4375 15.867188 -28.921875 13.890625 -28.921875 C 12.316406 -28.921875 11.101562 -28.59375 10.25 -27.9375 C 9.394531 -27.28125 8.96875 -26.378906 8.96875 -25.234375 C 8.96875 -24.410156 9.210938 -23.71875 9.703125 -23.15625 C 10.203125 -22.601562 10.953125 -22.09375 11.953125 -21.625 C 12.953125 -21.164062 14.503906 -20.578125 16.609375 -19.859375 C 18.910156 -19.003906 20.734375 -18.253906 22.078125 -17.609375 C 23.421875 -16.972656 24.625 -16 25.6875 -14.6875 C 26.757812 -13.375 27.296875 -11.679688 27.296875 -9.609375 C 27.296875 -7.609375 26.78125 -5.847656 25.75 -4.328125 C 24.71875 -2.816406 23.253906 -1.648438 21.359375 -0.828125 C 19.472656 -0.015625 17.25 0.390625 14.6875 0.390625 Z M 14.6875 0.390625 "/></g></g></g><g fill="#946c0a" fill-opacity="1"><g transform="translate(84.720277, 298.561708)"><g><path d="M 2.59375 -9.59375 C 3.320312 -9.59375 3.859375 -9.375 4.203125 -8.9375 C 4.554688 -8.5 4.734375 -7.921875 4.734375 -7.203125 L 4.734375 -6.34375 L 3.734375 -6.34375 L 3.734375 -7.25 C 3.734375 -7.6875 3.644531 -8.023438 3.46875 -8.265625 C 3.289062 -8.503906 3.007812 -8.625 2.625 -8.625 C 2.238281 -8.625 1.953125 -8.503906 1.765625 -8.265625 C 1.585938 -8.023438 1.5 -7.6875 1.5 -7.25 L 1.5 -2.234375 C 1.5 -1.804688 1.585938 -1.472656 1.765625 -1.234375 C 1.953125 -0.992188 2.238281 -0.875 2.625 -0.875 C 3.007812 -0.875 3.289062 -0.992188 3.46875 -1.234375 C 3.644531 -1.472656 3.734375 -1.804688 3.734375 -2.234375 L 3.734375 -3.46875 L 4.734375 -3.46875 L 4.734375 -2.296875 C 4.734375 -1.566406 4.554688 -0.984375 4.203125 -0.546875 C 3.859375 -0.117188 3.320312 0.09375 2.59375 0.09375 C 1.863281 0.09375 1.328125 -0.117188 0.984375 -0.546875 C 0.640625 -0.984375 0.46875 -1.566406 0.46875 -2.296875 L 0.46875 -7.203125 C 0.46875 -7.566406 0.507812 -7.894531 0.59375 -8.1875 C 0.675781 -8.476562 0.804688 -8.726562 0.984375 -8.9375 C 1.160156 -9.144531 1.378906 -9.304688 1.640625 -9.421875 C 1.910156 -9.535156 2.226562 -9.59375 2.59375 -9.59375 Z M 2.59375 -9.59375 "/></g></g></g><g fill="#946c0a" fill-opacity="1"><g transform="translate(94.623468, 298.561708)"><g><path d="M 3.921875 -5.296875 L 3.921875 -4.34375 L 1.59375 -4.34375 L 1.59375 -0.96875 L 4.453125 -0.96875 L 4.453125 0 L 0.546875 0 L 0.546875 -9.5 L 4.453125 -9.5 L 4.453125 -8.53125 L 1.59375 -8.53125 L 1.59375 -5.296875 Z M 3.921875 -5.296875 "/></g></g></g><g fill="#946c0a" fill-opacity="1"><g transform="translate(104.255491, 298.561708)"><g><path d="M 1.484375 0 L 0.53125 0 L 0.53125 -9.5 L 1.875 -9.5 L 4.0625 -2.625 L 4.0625 -9.5 L 5 -9.5 L 5 0 L 3.90625 0 L 1.484375 -7.671875 Z M 1.484375 0 "/></g></g></g><g fill="#946c0a" fill-opacity="1"><g transform="translate(114.551879, 298.561708)"><g><path d="M 1.921875 0 L 1.921875 -8.53125 L 0.171875 -8.53125 L 0.171875 -9.5 L 4.734375 -9.5 L 4.734375 -8.53125 L 2.984375 -8.53125 L 2.984375 0 Z M 1.921875 0 "/></g></g></g><g fill="#946c0a" fill-opacity="1"><g transform="translate(124.224573, 298.561708)"><g><path d="M 2.65625 -9.5 C 3.40625 -9.5 3.945312 -9.3125 4.28125 -8.9375 C 4.613281 -8.5625 4.78125 -8.023438 4.78125 -7.328125 L 4.78125 -6.546875 C 4.78125 -6.023438 4.679688 -5.597656 4.484375 -5.265625 C 4.296875 -4.941406 4 -4.71875 3.59375 -4.59375 C 4.03125 -4.46875 4.335938 -4.234375 4.515625 -3.890625 C 4.691406 -3.554688 4.78125 -3.132812 4.78125 -2.625 L 4.78125 -1.140625 C 4.78125 -0.929688 4.789062 -0.726562 4.8125 -0.53125 C 4.832031 -0.34375 4.890625 -0.164062 4.984375 0 L 3.90625 0 C 3.84375 -0.132812 3.796875 -0.28125 3.765625 -0.4375 C 3.742188 -0.59375 3.734375 -0.832031 3.734375 -1.15625 L 3.734375 -2.640625 C 3.734375 -3.171875 3.613281 -3.539062 3.375 -3.75 C 3.132812 -3.957031 2.789062 -4.0625 2.34375 -4.0625 L 1.59375 -4.0625 L 1.59375 0 L 0.546875 0 L 0.546875 -9.5 Z M 2.390625 -5.015625 C 2.816406 -5.015625 3.144531 -5.101562 3.375 -5.28125 C 3.613281 -5.457031 3.734375 -5.800781 3.734375 -6.3125 L 3.734375 -7.234375 C 3.734375 -7.660156 3.648438 -7.984375 3.484375 -8.203125 C 3.316406 -8.421875 3.03125 -8.53125 2.625 -8.53125 L 1.59375 -8.53125 L 1.59375 -5.015625 Z M 2.390625 -5.015625 "/></g></g></g><g fill="#946c0a" fill-opacity="1"><g transform="translate(134.317589, 298.561708)"><g><path d="M 1.609375 -1.90625 L 1.25 0 L 0.265625 0 L 2.09375 -9.5 L 3.625 -9.5 L 5.4375 0 L 4.375 0 L 4.015625 -1.90625 Z M 1.75 -2.828125 L 3.859375 -2.828125 L 2.796875 -8.296875 Z M 1.75 -2.828125 "/></g></g></g><g fill="#946c0a" fill-opacity="1"><g transform="translate(144.790237, 298.561708)"><g><path d="M 0.546875 0 L 0.546875 -9.5 L 1.59375 -9.5 L 1.59375 -0.96875 L 4.3125 -0.96875 L 4.3125 0 Z M 0.546875 0 "/></g></g></g><g fill="#946c0a" fill-opacity="1"><g transform="translate(154.110408, 298.561708)"><g/></g></g><g fill="#946c0a" fill-opacity="1"><g transform="translate(160.962923, 298.561708)"><g><path d="M 2.765625 -9.5 C 3.503906 -9.5 4.046875 -9.285156 4.390625 -8.859375 C 4.742188 -8.441406 4.921875 -7.867188 4.921875 -7.140625 L 4.921875 -2.34375 C 4.921875 -1.613281 4.742188 -1.039062 4.390625 -0.625 C 4.046875 -0.207031 3.503906 0 2.765625 0 L 0.546875 0 L 0.546875 -9.5 Z M 2.75 -0.96875 C 3.132812 -0.96875 3.414062 -1.082031 3.59375 -1.3125 C 3.78125 -1.539062 3.875 -1.875 3.875 -2.3125 L 3.875 -7.1875 C 3.875 -7.625 3.78125 -7.957031 3.59375 -8.1875 C 3.414062 -8.414062 3.128906 -8.53125 2.734375 -8.53125 L 1.59375 -8.53125 L 1.59375 -0.96875 Z M 2.75 -0.96875 "/></g></g></g><g fill="#946c0a" fill-opacity="1"><g transform="translate(171.083048, 298.561708)"><g><path d="M 3.921875 -5.296875 L 3.921875 -4.34375 L 1.59375 -4.34375 L 1.59375 -0.96875 L 4.453125 -0.96875 L 4.453125 0 L 0.546875 0 L 0.546875 -9.5 L 4.453125 -9.5 L 4.453125 -8.53125 L 1.59375 -8.53125 L 1.59375 -5.296875 Z M 3.921875 -5.296875 "/></g></g></g><g fill="#946c0a" fill-opacity="1"><g transform="translate(180.71507, 298.561708)"><g/></g></g><g fill="#946c0a" fill-opacity="1"><g transform="translate(187.567591, 298.561708)"><g><path d="M 1.609375 -1.90625 L 1.25 0 L 0.265625 0 L 2.09375 -9.5 L 3.625 -9.5 L 5.4375 0 L 4.375 0 L 4.015625 -1.90625 Z M 1.75 -2.828125 L 3.859375 -2.828125 L 2.796875 -8.296875 Z M 1.75 -2.828125 "/></g></g></g><g fill="#946c0a" fill-opacity="1"><g transform="translate(198.040239, 298.561708)"><g><path d="M 1.921875 0 L 1.921875 -8.53125 L 0.171875 -8.53125 L 0.171875 -9.5 L 4.734375 -9.5 L 4.734375 -8.53125 L 2.984375 -8.53125 L 2.984375 0 Z M 1.921875 0 "/></g></g></g><g fill="#946c0a" fill-opacity="1"><g transform="translate(207.712934, 298.561708)"><g><path d="M 3.921875 -5.296875 L 3.921875 -4.34375 L 1.59375 -4.34375 L 1.59375 -0.96875 L 4.453125 -0.96875 L 4.453125 0 L 0.546875 0 L 0.546875 -9.5 L 4.453125 -9.5 L 4.453125 -8.53125 L 1.59375 -8.53125 L 1.59375 -5.296875 Z M 3.921875 -5.296875 "/></g></g></g><g fill="#946c0a" fill-opacity="1"><g transform="translate(217.344956, 298.561708)"><g><path d="M 1.484375 0 L 0.53125 0 L 0.53125 -9.5 L 1.875 -9.5 L 4.0625 -2.625 L 4.0625 -9.5 L 5 -9.5 L 5 0 L 3.90625 0 L 1.484375 -7.671875 Z M 1.484375 0 "/></g></g></g><g fill="#946c0a" fill-opacity="1"><g transform="translate(227.641342, 298.561708)"><g><path d="M 2.765625 -9.5 C 3.503906 -9.5 4.046875 -9.285156 4.390625 -8.859375 C 4.742188 -8.441406 4.921875 -7.867188 4.921875 -7.140625 L 4.921875 -2.34375 C 4.921875 -1.613281 4.742188 -1.039062 4.390625 -0.625 C 4.046875 -0.207031 3.503906 0 2.765625 0 L 0.546875 0 L 0.546875 -9.5 Z M 2.75 -0.96875 C 3.132812 -0.96875 3.414062 -1.082031 3.59375 -1.3125 C 3.78125 -1.539062 3.875 -1.875 3.875 -2.3125 L 3.875 -7.1875 C 3.875 -7.625 3.78125 -7.957031 3.59375 -8.1875 C 3.414062 -8.414062 3.128906 -8.53125 2.734375 -8.53125 L 1.59375 -8.53125 L 1.59375 -0.96875 Z M 2.75 -0.96875 "/></g></g></g><g fill="#946c0a" fill-opacity="1"><g transform="translate(237.761466, 298.561708)"><g><path d="M 1.59375 -9.5 L 1.59375 0 L 0.546875 0 L 0.546875 -9.5 Z M 1.59375 -9.5 "/></g></g></g><g fill="#946c0a" fill-opacity="1"><g transform="translate(244.654654, 298.561708)"><g><path d="M 4.046875 -0.015625 L 3.03125 -0.015625 L 1.453125 -7.5625 L 1.453125 0 L 0.53125 0 L 0.53125 -9.5 L 2 -9.5 L 3.5625 -1.90625 L 5.078125 -9.5 L 6.546875 -9.5 L 6.546875 0 L 5.546875 0 L 5.546875 -7.640625 Z M 4.046875 -0.015625 "/></g></g></g><g fill="#946c0a" fill-opacity="1"><g transform="translate(256.496714, 298.561708)"><g><path d="M 3.921875 -5.296875 L 3.921875 -4.34375 L 1.59375 -4.34375 L 1.59375 -0.96875 L 4.453125 -0.96875 L 4.453125 0 L 0.546875 0 L 0.546875 -9.5 L 4.453125 -9.5 L 4.453125 -8.53125 L 1.59375 -8.53125 L 1.59375 -5.296875 Z M 3.921875 -5.296875 "/></g></g></g><g fill="#946c0a" fill-opacity="1"><g transform="translate(266.128736, 298.561708)"><g><path d="M 1.484375 0 L 0.53125 0 L 0.53125 -9.5 L 1.875 -9.5 L 4.0625 -2.625 L 4.0625 -9.5 L 5 -9.5 L 5 0 L 3.90625 0 L 1.484375 -7.671875 Z M 1.484375 0 "/></g></g></g><g fill="#946c0a" fill-opacity="1"><g transform="translate(276.425122, 298.561708)"><g><path d="M 1.921875 0 L 1.921875 -8.53125 L 0.171875 -8.53125 L 0.171875 -9.5 L 4.734375 -9.5 L 4.734375 -8.53125 L 2.984375 -8.53125 L 2.984375 0 Z M 1.921875 0 "/></g></g></g><g fill="#946c0a" fill-opacity="1"><g transform="translate(286.097828, 298.561708)"><g><path d="M 0.46875 -7.203125 C 0.46875 -7.929688 0.644531 -8.507812 1 -8.9375 C 1.351562 -9.375 1.894531 -9.59375 2.625 -9.59375 C 3.363281 -9.59375 3.910156 -9.375 4.265625 -8.9375 C 4.628906 -8.507812 4.8125 -7.929688 4.8125 -7.203125 L 4.8125 -2.296875 C 4.8125 -1.566406 4.628906 -0.984375 4.265625 -0.546875 C 3.910156 -0.117188 3.363281 0.09375 2.625 0.09375 C 1.894531 0.09375 1.351562 -0.117188 1 -0.546875 C 0.644531 -0.984375 0.46875 -1.566406 0.46875 -2.296875 Z M 1.5 -2.234375 C 1.5 -1.804688 1.59375 -1.472656 1.78125 -1.234375 C 1.96875 -0.992188 2.25 -0.875 2.625 -0.875 C 3.019531 -0.875 3.304688 -0.992188 3.484375 -1.234375 C 3.660156 -1.472656 3.75 -1.804688 3.75 -2.234375 L 3.75 -7.25 C 3.75 -7.6875 3.660156 -8.023438 3.484375 -8.265625 C 3.304688 -8.503906 3.019531 -8.625 2.625 -8.625 C 2.25 -8.625 1.96875 -8.503906 1.78125 -8.265625 C 1.59375 -8.023438 1.5 -7.6875 1.5 -7.25 Z M 1.5 -2.234375 "/></g></g></g></svg>